<mxfile host="app.diagrams.net" modified="2023-12-07T09:49:28.715Z" agent="Mozilla/5.0 (Windows NT 10.0; Win64; x64) AppleWebKit/537.36 (KHTML, like Gecko) Chrome/117.0.0.0 Safari/537.36" version="22.1.7" etag="lJHi2CK3r_4rlE2ExxH-" type="github">
  <diagram name="第 1 页" id="0OOu86p2dJbQb1GZlHMw">
    <mxGraphModel>
      <root>
        <mxCell id="0" />
        <mxCell id="1" parent="0" />
      </root>
    </mxGraphModel>
  </diagram>
</mxfile>
